<svg version="1.1" viewBox="0.0 0.0 1248.0 350.98162729658793" fill="none" stroke="none" stroke-linecap="square" stroke-miterlimit="10" xmlns:xlink="http://www.w3.org/1999/xlink" xmlns="http://www.w3.org/2000/svg"><clipPath id="p.0"><path d="m0 0l1248.0 0l0 350.98163l-1248.0 0l0 -350.98163z" clip-rule="nonzero"/></clipPath><g clip-path="url(#p.0)"><path fill="#000000" fill-opacity="0.0" d="m0 0l1248.0 0l0 350.98163l-1248.0 0z" fill-rule="evenodd"/><path fill="#000000" d="m52.83202 171.51837l72.3342 -118.204666l136.27649 0l72.3342 118.204666l-72.3342 118.20468l-136.27649 0z" fill-rule="evenodd"/><path stroke="#000000" stroke-width="1.0" stroke-linejoin="round" stroke-linecap="butt" d="m52.83202 171.51837l72.3342 -118.204666l136.27649 0l72.3342 118.204666l-72.3342 118.20468l-136.27649 0z" fill-rule="evenodd"/><path fill="#ffffff" d="m392.4641 120.550545l0 107.14246l22.235565 0l0 -62.90042l29.972778 51.565887l10.6892395 0l30.139435 -52.936005l0.14282227 64.27054l22.235565 0l-0.30947876 -107.14246l-19.450165 0l-37.733795 66.58726l-38.32895 -66.58726z" fill-rule="evenodd"/><path fill="#ffffff" d="m577.3363 193.26593l0 8.419937c-1.2538452 3.670227 -3.3964233 6.4519653 -6.4278564 8.3452c-3.015503 1.8766327 -6.475403 2.8149567 -10.379761 2.8149567c-3.9995117 0 -7.1499634 -0.88848877 -9.451294 -2.6654816c-2.2854614 -1.7936096 -3.4281616 -4.218277 -3.4281616 -7.2740326c0 -6.427063 4.682007 -9.640579 14.0460205 -9.640579zm-15.045898 -49.14952c-6.3485107 0 -12.5224 0.8718872 -18.521729 2.6156616c-5.9833984 1.7271576 -11.125671 4.1767426 -15.426758 7.348755l8.189514 16.665497c2.8250732 -2.341629 6.2611694 -4.20166 10.30835 -5.580078c4.04718 -1.3784027 8.173645 -2.0676117 12.379517 -2.0676117c6.046936 0 10.578186 1.4033203 13.593689 4.209976c3.015564 2.8066406 4.5233154 6.809021 4.5233154 12.007126l-18.117004 0c-11.506592 0 -20.021484 2.20047 -25.544678 6.601425c-5.507324 4.3843536 -8.260986 10.404526 -8.260986 18.060516c0 4.7829285 1.166565 9.067627 3.4996338 12.854111c2.348938 3.7698822 5.7374268 6.7259827 10.165466 8.868332c4.4439697 2.1423645 9.689392 3.2135315 15.736328 3.2135315c11.712952 0 19.712036 -3.8279877 23.997253 -11.483994l0 10.263351l21.354736 0l0 -46.982254c0 -12.239639 -3.2694702 -21.398605 -9.808411 -27.476898c-6.5230713 -6.078308 -15.87915 -9.117447 -28.068237 -9.117447z" fill-rule="evenodd"/><path fill="#ffffff" d="m659.701 144.11641c-8.395874 0 -15.934692 1.8184967 -22.616455 5.4555206c-6.6659546 3.620407 -11.879639 8.6441345 -15.641113 15.071182c-3.7456055 6.427063 -5.618408 13.717697 -5.618408 21.871918c0 8.170822 1.8728027 15.469772 5.618408 21.89682c3.7614746 6.4270477 8.975159 11.450775 15.641113 15.0711975c6.6817627 3.620407 14.220581 5.430603 22.616455 5.430603c8.28479 0 15.522034 -1.8351135 21.711792 -5.5053406c6.1897583 -3.6702423 10.705139 -8.768692 13.546082 -15.295395l-17.71228 -10.113892c-3.9995117 7.556366 -9.895691 11.334534 -17.688416 11.334534c-5.951721 0 -10.879761 -2.0427094 -14.784058 -6.128113c-3.9042969 -4.0854187 -5.8564453 -9.648895 -5.8564453 -16.690414c0 -7.0415344 1.9521484 -12.596695 5.8564453 -16.665497c3.9042969 -4.0854187 8.832336 -6.128128 14.784058 -6.128128c7.69751 0 13.593689 3.7698822 17.688416 11.309631l17.71228 -9.939514c-2.8409424 -6.7259827 -7.3563232 -11.899185 -13.546082 -15.519592c-6.1897583 -3.637024 -13.427002 -5.4555206 -21.711792 -5.4555206z" fill-rule="evenodd"/><path fill="#ffffff" d="m756.9542 144.11641c-6.031067 0 -11.36377 1.021347 -15.998169 3.0640564c-4.6343994 2.0427094 -8.316528 5.056946 -11.046326 9.042709l0 -10.861221l-21.807068 0l0 82.331055l22.83075 0l0 -38.88617c0 -7.639389 1.848999 -13.368927 5.546997 -17.18863c3.7138062 -3.8363037 8.832275 -5.7544556 15.355347 -5.7544556c0.88879395 0 2.5949707 0.09965515 5.118469 0.29893494l0 -22.04628z" fill-rule="evenodd"/><path fill="#ffffff" d="m974.6116 162.17693c5.0787964 0 9.371948 1.5610962 12.879517 4.6832733c3.5075073 3.1055908 5.6501465 7.257431 6.4277954 12.455536l-38.757446 0c0.7776489 -5.29776 2.920288 -9.474518 6.4278564 -12.530258c3.5075073 -3.0723724 7.8482666 -4.608551 13.022278 -4.608551zm-167.33533 1.5444794c5.8565063 0 10.657532 2.067627 14.403137 6.2028656c3.7614746 4.118622 5.642212 9.64888 5.642212 16.59076c0 6.9418793 -1.8807373 12.480438 -5.642212 16.615677c-3.7456055 4.1352386 -8.546631 6.2028503 -14.403137 6.2028503c-5.840576 0 -10.665405 -2.0676117 -14.474487 -6.2028503c-3.809082 -4.1352386 -5.713684 -9.673798 -5.713684 -16.615677c0 -6.9418793 1.904602 -12.472137 5.713684 -16.59076c3.809082 -4.1352386 8.633911 -6.2028656 14.474487 -6.2028656zm38.776917 -43.17086l0 20.202873l32.75818 0l0 86.93959l23.687744 0l0 -86.93959l32.75818 0l0 -20.202873zm-38.776917 23.565865c-8.284729 0 -15.720398 1.8184967 -22.306946 5.4555206c-6.5706787 3.620407 -11.712952 8.6441345 -15.426819 15.071182c-3.697998 6.427063 -5.546997 13.717697 -5.546997 21.871918c0 8.170822 1.848999 15.469772 5.546997 21.89682c3.7138672 6.4270477 8.85614 11.450775 15.426819 15.0711975c6.586548 3.620407 14.022217 5.430603 22.306946 5.430603c8.28479 0 15.696655 -1.8101959 22.235596 -5.430603c6.5389404 -3.6204224 11.65741 -8.64415 15.355408 -15.0711975c3.7138672 -6.4270477 5.570801 -13.725998 5.570801 -21.89682c0 -8.154221 -1.8569336 -15.444855 -5.570801 -21.871918c-3.697998 -6.4270477 -8.816467 -11.450775 -15.355408 -15.071182c-6.5389404 -3.637024 -13.950806 -5.4555206 -22.235596 -5.4555206zm167.1925 0c-7.9038696 0 -15.053833 1.8184967 -21.449951 5.4555206c-6.380188 3.620407 -11.395508 8.669052 -15.045898 15.14592c-3.6503906 6.476883 -5.475525 13.7425995 -5.475525 21.79718c0 8.170822 1.848938 15.469772 5.546936 21.89682c3.7138672 6.4270477 8.983154 11.450775 15.807739 15.0711975c6.824646 3.620407 14.672913 5.430603 23.544922 5.430603c14.236511 0 25.060669 -4.4341736 32.472473 -13.3025055l-12.141418 -13.775818c-2.7298584 2.7568207 -5.681946 4.7746124 -8.85614 6.0533905c-3.1742554 1.2621613 -6.808777 1.8932343 -10.903564 1.8932343c-5.935791 0 -10.903503 -1.4780579 -14.903015 -4.4341583c-3.9995728 -2.9561157 -6.5389404 -6.9833984 -7.618225 -12.081863l59.540833 0c0.28570557 -3.9857788 0.42852783 -6.128128 0.42852783 -6.427063c0 -8.586014 -1.7775879 -16.117447 -5.3327026 -22.59433c-3.5551758 -6.4768677 -8.459351 -11.450775 -14.712585 -14.921722c-6.2374268 -3.470932 -13.204895 -5.2064056 -20.902405 -5.2064056z" fill-rule="evenodd"/><path fill="#ffffff" d="m1068.669 144.11641c-8.395874 0 -15.934692 1.8184967 -22.616455 5.4555206c-6.6658936 3.620407 -11.879517 8.6441345 -15.640991 15.071182c-3.7456055 6.427063 -5.618408 13.717697 -5.618408 21.871918c0 8.170822 1.8728027 15.469772 5.618408 21.89682c3.7614746 6.4270477 8.975098 11.450775 15.640991 15.0711975c6.6817627 3.620407 14.220703 5.430603 22.616455 5.430603c8.28479 0 15.522095 -1.8351135 21.711914 -5.5053406c6.1896973 -3.6702423 10.705078 -8.768692 13.5460205 -15.295395l-17.71228 -10.113892c-3.9995117 7.556366 -9.895752 11.334534 -17.688477 11.334534c-5.95166 0 -10.879639 -2.0427094 -14.784058 -6.128113c-3.9042969 -4.0854187 -5.8564453 -9.648895 -5.8564453 -16.690414c0 -7.0415344 1.9521484 -12.596695 5.8564453 -16.665497c3.904419 -4.0854187 8.832397 -6.128128 14.784058 -6.128128c7.69751 0 13.59375 3.7698822 17.688477 11.309631l17.71228 -9.939514c-2.8409424 -6.7259827 -7.3563232 -11.899185 -13.5460205 -15.519592c-6.1898193 -3.637024 -13.427124 -5.4555206 -21.711914 -5.4555206z" fill-rule="evenodd"/><path fill="#ffffff" d="m1116.4856 114.12349l0 113.56952l22.83081 0l0 -40.704666c0 -7.357071 1.7060547 -12.89563 5.118408 -16.615677c3.4123535 -3.720047 7.991089 -5.580078 13.736572 -5.580078c5.17395 0 9.1258545 1.6109161 11.855713 4.8327484c2.7298584 3.2052155 4.0948486 8.071182 4.0948486 14.59787l0 43.469803l22.830688 0l0 -47.13173c0 -12.040344 -2.9996338 -21.124573 -8.999023 -27.252686c-5.9992676 -6.128128 -13.879272 -9.192184 -23.640137 -9.192184c-5.062866 0 -9.744873 0.8469696 -14.0460205 2.540924c-4.2851562 1.6773376 -7.935547 4.1020203 -10.95105 7.2740326l0 -39.807877z" fill-rule="evenodd"/><path fill="#000000" fill-opacity="0.0" d="m193.30319 169.68127l70.80313 117.63779" fill-rule="evenodd"/><path stroke="#ed0d9c" stroke-width="12.0" stroke-linejoin="round" stroke-linecap="butt" d="m193.30319 169.68127l70.80313 117.63779" fill-rule="evenodd"/><path fill="#000000" fill-opacity="0.0" d="m193.30319 169.68127l70.80313 -117.6378" fill-rule="evenodd"/><path stroke="#ed0d9c" stroke-width="12.0" stroke-linejoin="round" stroke-linecap="butt" d="m193.30319 169.68127l70.80313 -117.6378" fill-rule="evenodd"/><path fill="#000000" fill-opacity="0.0" d="m193.30319 169.68127l-142.23624 0" fill-rule="evenodd"/><path stroke="#ed0d9c" stroke-width="12.0" stroke-linejoin="round" stroke-linecap="butt" d="m193.30319 169.68127l-142.23624 0" fill-rule="evenodd"/><path fill="#000000" fill-opacity="0.0" d="m334.26654 169.6817l-70.17322 -117.63779" fill-rule="evenodd"/><path stroke="#ed0d9c" stroke-width="12.0" stroke-linejoin="round" stroke-linecap="butt" d="m334.26654 169.6817l-70.17322 -117.63779" fill-rule="evenodd"/><path fill="#000000" fill-opacity="0.0" d="m264.10632 52.043476l-141.6063 0" fill-rule="evenodd"/><path stroke="#ed0d9c" stroke-width="12.0" stroke-linejoin="round" stroke-linecap="butt" d="m264.10632 52.043476l-141.6063 0" fill-rule="evenodd"/><path fill="#000000" fill-opacity="0.0" d="m122.50004 52.043476l-71.433075 117.6378" fill-rule="evenodd"/><path stroke="#ed0d9c" stroke-width="12.0" stroke-linejoin="round" stroke-linecap="butt" d="m122.50004 52.043476l-71.433075 117.6378" fill-rule="evenodd"/><path fill="#000000" fill-opacity="0.0" d="m51.05623 169.68239l71.43307 117.6378" fill-rule="evenodd"/><path stroke="#ed0d9c" stroke-width="12.0" stroke-linejoin="round" stroke-linecap="butt" d="m51.05623 169.68239l71.43307 117.6378" fill-rule="evenodd"/><path fill="#000000" fill-opacity="0.0" d="m122.50235 287.32135l141.6063 0" fill-rule="evenodd"/><path stroke="#ed0d9c" stroke-width="12.0" stroke-linejoin="round" stroke-linecap="butt" d="m122.50235 287.32135l141.6063 0" fill-rule="evenodd"/><path fill="#000000" fill-opacity="0.0" d="m264.09332 287.3195l70.17322 -117.63779" fill-rule="evenodd"/><path stroke="#ed0d9c" stroke-width="12.0" stroke-linejoin="round" stroke-linecap="butt" d="m264.09332 287.3195l70.17322 -117.63779" fill-rule="evenodd"/><path fill="#000000" d="m119.06357 50.039288l3.9527512 2.8031502l-0.45668793 -4.8188972z" fill-rule="evenodd"/><path stroke="#ed0d9c" stroke-width="4.0" stroke-linejoin="round" stroke-linecap="butt" d="m119.06357 50.039288l3.9527512 2.8031502l-0.45668793 -4.8188972z" fill-rule="evenodd"/><path fill="#ed0d9c" d="m337.59213 171.69748l-4.4094543 -2.015747l4.4094543 -2.015747z" fill-rule="evenodd"/><path stroke="#ed0d9c" stroke-width="4.0" stroke-linejoin="round" stroke-linecap="butt" d="m337.59213 171.69748l-4.4094543 -2.015747l4.4094543 -2.015747z" fill-rule="evenodd"/><path fill="#ed0d9c" d="m264.0604 291.31238l-0.551178 -4.86615l4.047241 2.881897z" fill-rule="evenodd"/><path stroke="#ed0d9c" stroke-width="4.0" stroke-linejoin="round" stroke-linecap="butt" d="m264.0604 291.31238l-0.551178 -4.86615l4.047241 2.881897z" fill-rule="evenodd"/><path fill="#ed0d9c" d="m47.73488 167.61945l4.2834663 2.0629883l-4.2834663 2.0629883z" fill-rule="evenodd"/><path stroke="#ed0d9c" stroke-width="4.0" stroke-linejoin="round" stroke-linecap="butt" d="m47.73488 167.61945l4.2834663 2.0629883l-4.2834663 2.0629883z" fill-rule="evenodd"/><path fill="#ed0d9c" d="m122.51183 291.31238l0.551178 -4.86615l-4.047241 2.881897z" fill-rule="evenodd"/><path stroke="#ed0d9c" stroke-width="4.0" stroke-linejoin="round" stroke-linecap="butt" d="m122.51183 291.31238l0.551178 -4.86615l-4.047241 2.881897z" fill-rule="evenodd"/><path fill="#ed0d9c" d="m267.50977 50.039288l-3.9527588 2.8031502l0.45669556 -4.8188972z" fill-rule="evenodd"/><path stroke="#ed0d9c" stroke-width="4.0" stroke-linejoin="round" stroke-linecap="butt" d="m267.50977 50.039288l-3.9527588 2.8031502l0.45669556 -4.8188972z" fill-rule="evenodd"/><path fill="#15c5c8" d="m89.54855 149.66142l45.28267 -76.8819l89.70946 0l-45.28267 76.8819z" fill-rule="evenodd"/><path fill="#15c5c8" d="m262.7729 247.32195l-43.927246 -77.67044l44.87213 -77.668144l43.927246 77.67045z" fill-rule="evenodd"/><path fill="#15c5c8" d="m90.84252 190.06036l45.28266 76.8819l89.70946 0l-45.282654 -76.8819z" fill-rule="evenodd"/></g></svg>